<svg width="109" height="40" viewBox="0 0 109 40" fill="none" xmlns="http://www.w3.org/2000/svg">
<path d="M0 28.6841V0.871643H6.10942V10.525C6.91844 9.72521 7.89649 9.11704 8.97159 8.74521C10.005 8.40315 11.0869 8.23064 12.1755 8.23436C13.3607 8.22718 14.5361 8.44924 15.637 8.88832C16.7099 9.31849 17.6735 9.98249 18.4575 10.832C19.2987 11.7645 19.9454 12.8555 20.3595 14.0411C20.8537 15.4744 21.092 16.9833 21.0638 18.4991C21.0925 20.062 20.8543 21.6183 20.3595 23.1011C19.9444 24.3313 19.2747 25.4602 18.3942 26.4143C17.5595 27.297 16.5381 27.9818 15.4045 28.4187C14.211 28.8754 12.9425 29.1043 11.6646 29.0935C10.5874 29.1039 9.51679 28.9236 8.50237 28.5609C7.53847 28.2106 6.66347 27.6524 5.93943 26.926V28.685L0 28.6841ZM6.10942 20.2589C6.09371 20.7878 6.19254 21.3139 6.39913 21.801C6.60572 22.2881 6.91519 22.7248 7.30633 23.0812C8.19205 23.849 9.34037 24.2447 10.5111 24.1853C11.1249 24.213 11.7366 24.096 12.2969 23.8438C12.8572 23.5916 13.3504 23.2113 13.7367 22.7334C14.5902 21.5396 15.0056 20.0878 14.9128 18.6232C14.9983 17.1847 14.5827 15.761 13.7367 14.5944C13.3503 14.1166 12.8572 13.7362 12.2969 13.4839C11.7366 13.2316 11.1249 13.1143 10.5111 13.1417C9.34408 13.0911 8.20299 13.4953 7.32801 14.2692C6.92149 14.6538 6.60261 15.1214 6.39308 15.6403C6.18354 16.1592 6.08827 16.7172 6.11376 17.2762L6.10942 20.2589Z" fill="#161615"/>
<path d="M24.3987 28.6841V8.64374H30.5081V28.6841H24.3987Z" fill="#161615"/>
<path d="M34.2263 28.6841V0.871643H40.3366V28.6841H34.2263Z" fill="#161615"/>
<path d="M63.581 19.9319H49.4801C49.4852 21.2211 49.9736 22.4615 50.8487 23.4082C51.2741 23.7981 51.7725 24.0999 52.3151 24.2964C52.8576 24.4929 53.4337 24.5801 54.0101 24.553C55.0148 24.6331 56.0131 24.3338 56.8081 23.7143C57.3471 23.2581 57.7643 22.6751 58.0224 22.0178L63.4483 22.9996C63.2339 23.7974 62.895 24.5564 62.444 25.2486C61.9529 26.0077 61.3225 26.6669 60.5862 27.1914C59.7313 27.7932 58.7863 28.2555 57.7865 28.5609C56.5473 28.9364 55.2571 29.1161 53.9624 29.0935C50.7152 29.0935 48.1728 28.1663 46.3352 26.312C44.4976 24.4576 43.5791 21.908 43.5797 18.663C43.549 17.1112 43.8249 15.5685 44.3915 14.1235C44.8834 12.8883 45.6336 11.7726 46.5919 10.851C47.5295 9.97102 48.6439 9.30101 49.8609 8.8857C51.1534 8.44349 52.5113 8.2224 53.8774 8.23173C57.0674 8.23173 59.4818 9.18579 61.1205 11.0939C62.8272 13.2041 63.7011 15.8668 63.5767 18.578L63.581 19.9319ZM53.8818 12.7739C52.9185 12.7557 51.9752 13.0499 51.1931 13.6126C50.3498 14.2942 49.7869 15.2624 49.6119 16.3325H57.816C57.7777 15.3247 57.3488 14.3713 56.6199 13.6742C55.8507 13.0443 54.8746 12.7234 53.8818 12.7739Z" fill="#161615"/>
<path d="M66.5498 28.6841V8.64376H72.4892V11.1789C73.1882 10.298 74.0701 9.5792 75.0739 9.07222C76.2901 8.48058 77.6318 8.19307 78.9838 8.23439C80.3956 8.17339 81.7958 8.51381 83.022 9.21619C84.0074 9.81135 84.801 10.6772 85.3083 11.7106C86.0802 10.56 87.163 9.65225 88.4306 9.09303C89.7638 8.51006 91.2057 8.21737 92.6606 8.23439C94.5729 8.15582 96.4437 8.80689 97.894 10.0558C98.5943 10.7315 99.1389 11.5518 99.4897 12.4596C99.8405 13.3673 99.9892 14.3407 99.9253 15.3117V28.6859H93.7673V16.5433C93.7983 16.0844 93.7305 15.6242 93.5685 15.1937C93.4064 14.7633 93.1539 14.3726 92.828 14.0481C92.0725 13.4323 91.1118 13.1255 90.1393 13.1894C89.1731 13.1789 88.2318 13.4959 87.4688 14.0888C87.092 14.3656 86.7881 14.7299 86.5834 15.1502C86.3786 15.5706 86.2792 16.0344 86.2936 16.5017V28.6841H80.1356V16.5416C80.1642 16.089 80.0951 15.6355 79.9329 15.2119C79.7707 14.7884 79.5191 14.4047 79.1954 14.0871C78.4538 13.4744 77.5067 13.1671 76.5466 13.2276C75.5696 13.212 74.6152 13.5216 73.8336 14.1079C73.456 14.3792 73.1511 14.7394 72.946 15.1566C72.7408 15.5739 72.6417 16.0353 72.6575 16.5V28.6841H66.5498Z" fill="#161615"/>
<path d="M27.4534 6.10943C29.1405 6.10943 30.5081 4.74178 30.5081 3.05471C30.5081 1.36764 29.1405 0 27.4534 0C25.7663 0 24.3987 1.36764 24.3987 3.05471C24.3987 4.74178 25.7663 6.10943 27.4534 6.10943Z" fill="#161615"/>
<path d="M105.945 28.9704C107.632 28.9704 109 27.6027 109 25.9157C109 24.2286 107.632 22.861 105.945 22.861C104.258 22.861 102.89 24.2286 102.89 25.9157C102.89 27.6027 104.258 28.9704 105.945 28.9704Z" fill="#161615"/>
<path d="M99.9217 34.6305H0V39.9455H99.9217V34.6305Z" fill="#161615"/>
</svg>
