<svg width="156" height="66" viewBox="0 0 156 66" fill="none" xmlns="http://www.w3.org/2000/svg">
<path d="M145.371 29.9533C145.011 29.9704 144.652 30.0065 144.296 30.0616V26.8837C144.392 24.6542 144.002 22.4305 143.153 20.3669C142.304 18.3033 141.015 16.4493 139.377 14.9337C136.229 12.19 132.167 10.7246 127.991 10.8259C125.132 10.8048 122.3 11.389 119.683 12.54C119.365 12.6819 119.051 12.835 118.749 12.9919C116.12 11.4962 113.132 10.7472 110.108 10.8259C107.523 10.7796 104.958 11.2891 102.587 12.3197L101.612 11.345H93.837L90.0654 15.1205C86.4691 12.1691 81.9168 10.6361 77.2678 10.8109C74.7206 10.7994 72.1894 11.216 69.7803 12.0433C68.5905 12.4599 67.4448 12.9928 66.3596 13.6342V7.98783L59.5519 1.18375H51.5641L49.8986 2.84556C48.197 1.27382 46.032 0.295482 43.7278 0.0569876C41.4237 -0.181507 39.1043 0.332671 37.1168 1.52256C35.1293 2.71245 33.5807 4.51404 32.7027 6.65765C31.8246 8.80126 31.6645 11.1716 32.2462 13.4139C31.467 12.9298 30.6488 12.5113 29.8002 12.1628C27.55 11.2619 25.1475 10.803 22.7237 10.8109C22.3502 10.8109 21.9767 10.811 21.6033 10.8409V7.98783L14.7956 1.18375H6.80784L0 7.98783V44.3642L3.88753 48.2516L0 52.1392V59.0925L6.80784 65.8965H137.51L144.314 59.0925V52.1392L143.53 51.355C144.146 51.4739 144.77 51.5376 145.397 51.5454C148.227 51.4928 150.924 50.3316 152.906 48.3116C154.889 46.2916 156 43.5742 156 40.7437C156 37.9132 154.889 35.1958 152.906 33.1758C150.924 31.1559 148.227 29.9947 145.397 29.9421L145.371 29.9533Z" fill="#CAC6BF"/>
<path d="M6.80043 44.3755V7.99908H14.7883V20.625C15.844 19.5808 17.12 18.7858 18.5226 18.2984C19.8738 17.8499 21.2888 17.6242 22.7125 17.63C24.2635 17.6198 25.8018 17.9102 27.2423 18.4852C28.6441 19.0477 29.9031 19.9151 30.9281 21.0246C32.0307 22.2439 32.8765 23.6726 33.4153 25.2257C34.0631 27.0995 34.3753 29.0728 34.3376 31.0551C34.3757 33.0996 34.0638 35.1356 33.4153 37.0748C32.8737 38.6837 31.9981 40.16 30.846 41.4067C29.7517 42.5578 28.4148 43.4507 26.9323 44.0207C25.3722 44.6171 23.7142 44.916 22.0441 44.902C20.6347 44.9159 19.234 44.6808 17.9064 44.2075C16.6425 43.7498 15.495 43.0192 14.5455 42.0677V44.3681L6.80043 44.3755ZM14.7883 33.3554C14.7674 34.0472 14.8969 34.7353 15.1676 35.3722C15.4384 36.0092 15.844 36.5799 16.3566 37.045C17.5138 38.0505 19.0156 38.5685 20.5466 38.4902C21.3494 38.5262 22.1494 38.3733 22.8823 38.0438C23.6152 37.7143 24.2606 37.2175 24.7665 36.5931C25.8807 35.0302 26.4227 33.1312 26.3013 31.2156C26.4131 29.3347 25.8708 27.473 24.7665 25.9464C24.2608 25.3216 23.6155 24.8242 22.8826 24.4941C22.1497 24.1639 21.3496 24.0103 20.5466 24.0456C19.0206 23.979 17.5282 24.5064 16.3828 25.517C15.8498 26.0192 15.4314 26.6304 15.1562 27.3091C14.8811 27.9877 14.7555 28.7176 14.7883 29.4492V33.3554Z" fill="#6B0D24"/>
<path d="M38.7106 44.3755V18.1641H46.6983V44.3755H38.7106Z" fill="#6B0D24"/>
<path d="M51.5642 44.3755V7.99908H59.552V44.3755H51.5642Z" fill="#6B0D24"/>
<path d="M89.9534 32.9259H71.5132C71.5176 34.6128 72.1561 36.2365 73.3019 37.4745C73.8583 37.984 74.51 38.3783 75.2195 38.6347C75.929 38.8911 76.6823 39.0044 77.4359 38.9682C78.7501 39.0726 80.0557 38.6809 81.0955 37.8703C81.8029 37.2747 82.351 36.5124 82.69 35.6521L89.7854 36.9367C89.5039 37.9797 89.0616 38.9724 88.4746 39.8793C87.8297 40.87 87.0051 41.7313 86.0435 42.4188C84.9244 43.2055 83.688 43.8104 82.3801 44.2112C80.7596 44.7015 79.0725 44.9358 77.3798 44.9058C75.5571 45.0111 73.7321 44.7428 72.0169 44.1173C70.3017 43.4918 68.7324 42.5224 67.4053 41.2685C66.1625 39.9292 65.2026 38.3529 64.5834 36.6339C63.9642 34.9148 63.6983 33.0885 63.8017 31.2642C63.7612 29.2345 64.1216 27.2168 64.8623 25.3266C65.5058 23.7111 66.4875 22.2518 67.7414 21.0469C68.9679 19.8972 70.4257 19.0227 72.0173 18.4815C73.7067 17.902 75.482 17.6128 77.2679 17.6263C79.0256 17.5024 80.7888 17.7736 82.4281 18.4197C84.0675 19.0659 85.5414 20.0708 86.7419 21.3607C88.9745 24.1216 90.1171 27.6054 89.9534 31.1522V32.9259ZM77.2565 23.5677C75.9954 23.5436 74.7604 23.9274 73.735 24.6619C72.6327 25.554 71.8976 26.821 71.67 28.2207H82.3987C82.3508 26.9021 81.7893 25.6544 80.834 24.744C79.832 23.9238 78.5613 23.5046 77.2679 23.5677H77.2565Z" fill="#6B0D24"/>
<path d="M93.8371 44.3755V18.1641H101.605V21.4802C102.518 20.3274 103.671 19.3869 104.984 18.7242C106.576 17.9523 108.332 17.5769 110.1 17.63C111.947 17.5492 113.778 17.9947 115.381 18.9146C116.669 19.6923 117.706 20.8239 118.368 22.1747C119.377 20.671 120.791 19.4837 122.446 18.7503C124.191 17.9893 126.077 17.6075 127.98 17.63C130.481 17.526 132.928 18.3763 134.825 20.0088C135.74 20.8934 136.452 21.9665 136.911 23.1537C137.369 24.341 137.563 25.6138 137.481 26.8838V44.3755H129.433V28.4895C129.474 27.8892 129.386 27.2872 129.174 26.7241C128.962 26.161 128.631 25.65 128.204 25.2257C127.215 24.4197 125.956 24.0192 124.683 24.1053C123.418 24.0917 122.187 24.5063 121.188 25.2817C120.695 25.6441 120.299 26.1207 120.031 26.6703C119.764 27.22 119.634 27.8263 119.653 28.4372V44.3792H111.605V28.4933C111.643 27.9011 111.553 27.3077 111.341 26.7535C111.129 26.1993 110.8 25.6973 110.377 25.2817C109.406 24.4812 108.167 24.0807 106.911 24.1614C105.633 24.1418 104.384 24.5463 103.36 25.3116C102.867 25.6675 102.469 26.139 102.202 26.6847C101.934 27.2304 101.805 27.8335 101.825 28.441V44.383L93.8371 44.3755Z" fill="#6B0D24"/>
<path d="M42.7064 14.8517C44.9132 14.8517 46.7021 13.0627 46.7021 10.8559C46.7021 8.6491 44.9132 6.86014 42.7064 6.86014C40.4996 6.86014 38.7106 8.6491 38.7106 10.8559C38.7106 13.0627 40.4996 14.8517 42.7064 14.8517Z" fill="#6B0D24"/>
<path d="M145.364 44.7489C147.571 44.7489 149.36 42.9599 149.36 40.7531C149.36 38.5463 147.571 36.7574 145.364 36.7574C143.157 36.7574 141.368 38.5463 141.368 40.7531C141.368 42.9599 143.157 44.7489 145.364 44.7489Z" fill="#6B0D24"/>
<path d="M137.484 52.1504H6.80043V59.1001H137.484V52.1504Z" fill="#6B0D24"/>
</svg>
