<svg width="50" height="50" viewBox="0 0 50 50" fill="none" xmlns="http://www.w3.org/2000/svg">
<path d="M36.484 0H12C5.37258 0 0 5.37258 0 12V38.504C0 45.1314 5.37258 50.504 12 50.504H36.484C43.1114 50.504 48.484 45.1314 48.484 38.504V12C48.484 5.37258 43.1114 0 36.484 0Z" fill="#CAC6BF"/>
<path d="M14.087 38.669L7.21802 31.8L8.72702 30.292L11.111 32.676C11.1131 32.2785 11.2043 31.8865 11.378 31.529C11.5488 31.1892 11.7734 30.8792 12.043 30.611C12.3344 30.3169 12.6797 30.0816 13.06 29.918C13.431 29.7592 13.8328 29.6855 14.236 29.702C14.6744 29.7241 15.1039 29.8339 15.499 30.025C15.9753 30.2566 16.4069 30.5704 16.774 30.952C17.167 31.3307 17.4923 31.7737 17.736 32.262C17.9372 32.6671 18.0507 33.1101 18.069 33.562C18.0807 33.9861 17.9973 34.4074 17.825 34.795C17.6434 35.2026 17.3866 35.5724 17.068 35.885C16.8049 36.154 16.4961 36.374 16.156 36.535C15.8313 36.6865 15.4773 36.7647 15.119 36.764L15.553 37.198L14.087 38.669ZM13.515 35.08C13.6418 35.2142 13.7961 35.3194 13.9673 35.3884C14.1385 35.4574 14.3226 35.4887 14.507 35.48C14.9155 35.4511 15.2968 35.2651 15.571 34.961C15.729 34.8165 15.851 34.6371 15.9272 34.4371C16.0034 34.2371 16.0318 34.022 16.01 33.809C15.9252 33.3037 15.6692 32.8429 15.285 32.504C14.9499 32.1293 14.4956 31.882 13.999 31.804C13.7856 31.7814 13.5699 31.8093 13.3693 31.8853C13.1687 31.9614 12.9888 32.0836 12.844 32.242C12.543 32.5173 12.3608 32.8988 12.336 33.306C12.3301 33.5013 12.3665 33.6957 12.4426 33.8757C12.5187 34.0557 12.6328 34.2171 12.777 34.349L13.515 35.08Z" fill="#111116"/>
<path d="M20.11 32.646L15.161 27.696L16.67 26.187L21.619 31.137L20.11 32.646Z" fill="#111116"/>
<path d="M22.539 30.218L15.671 23.35L17.18 21.841L24.048 28.71L22.539 30.218Z" fill="#111116"/>
<path d="M27.627 20.807L24.145 24.29C24.4657 24.6076 24.8939 24.7932 25.345 24.81C25.5466 24.8011 25.7444 24.7523 25.9271 24.6665C26.1097 24.5807 26.2735 24.4595 26.409 24.31C26.6773 24.0811 26.85 23.76 26.893 23.41C26.9135 23.1639 26.873 22.9166 26.775 22.69L28.357 21.59C28.5012 21.8388 28.6052 22.1088 28.665 22.39C28.7313 22.6989 28.7384 23.0175 28.686 23.329C28.6232 23.6884 28.5041 24.0357 28.333 24.358C28.1195 24.7567 27.8452 25.1197 27.52 25.434C27.1957 25.7985 26.8004 26.093 26.3583 26.2993C25.9162 26.5057 25.4367 26.6195 24.949 26.634C24.4614 26.6156 23.9826 26.4992 23.541 26.2917C23.0994 26.0841 22.7042 25.7897 22.379 25.426C21.9884 25.0501 21.6758 24.6008 21.459 24.104C21.275 23.6775 21.1846 23.2164 21.194 22.752C21.2085 22.3033 21.3186 21.8628 21.517 21.46C21.7265 21.0315 22.0072 20.6417 22.347 20.307C22.6563 19.9512 23.0415 19.6693 23.4741 19.4821C23.9068 19.2948 24.3759 19.207 24.847 19.225C25.7897 19.3247 26.6632 19.7666 27.302 20.467L27.627 20.807ZM23.464 21.435C23.2215 21.6688 23.0608 21.9746 23.006 22.307C22.9664 22.6836 23.0668 23.0616 23.288 23.369L25.314 21.343C25.0556 21.1035 24.7142 20.974 24.362 20.982C24.0169 21.0166 23.6969 21.178 23.464 21.435Z" fill="#111116"/>
<path d="M30.522 22.236L25.573 17.286L27.04 15.819L27.666 16.446C27.6208 16.0557 27.661 15.6602 27.784 15.287C27.938 14.8404 28.1981 14.4379 28.542 14.114C28.8756 13.7503 29.3056 13.4889 29.782 13.36C30.1724 13.2636 30.5824 13.2813 30.963 13.411C30.8693 12.9365 30.9123 12.4451 31.087 11.994C31.2717 11.5209 31.5554 11.0926 31.919 10.738C32.3714 10.2458 32.9943 9.9444 33.661 9.89502C34.0012 9.88924 34.3385 9.95783 34.6494 10.096C34.9604 10.2342 35.2373 10.4386 35.461 10.695L38.761 13.995L37.241 15.515L34.241 12.515C34.1355 12.3939 34.0052 12.2969 33.8588 12.2307C33.7125 12.1644 33.5536 12.1304 33.393 12.131C33.0539 12.1651 32.7405 12.3266 32.516 12.583C32.2753 12.8195 32.1213 13.1302 32.079 13.465C32.0536 13.6264 32.0681 13.7915 32.1213 13.946C32.1745 14.1004 32.2647 14.2395 32.384 14.351L35.394 17.361L33.875 18.881L30.875 15.881C30.77 15.7623 30.6408 15.6675 30.4961 15.603C30.3514 15.5384 30.1945 15.5057 30.036 15.507C29.7016 15.5389 29.392 15.6969 29.17 15.949C28.9249 16.1867 28.7655 16.499 28.717 16.837C28.6911 16.9972 28.7048 17.1613 28.7571 17.3149C28.8094 17.4685 28.8987 17.607 29.017 17.718L32.027 20.728L30.522 22.236Z" fill="#111116"/>
<path d="M14.537 26.629C15.1263 26.629 15.604 26.1513 15.604 25.562C15.604 24.9727 15.1263 24.495 14.537 24.495C13.9477 24.495 13.47 24.9727 13.47 25.562C13.47 26.1513 13.9477 26.629 14.537 26.629Z" fill="#111116"/>
<path d="M39.568 12.89C40.1573 12.89 40.635 12.4123 40.635 11.823C40.635 11.2337 40.1573 10.756 39.568 10.756C38.9787 10.756 38.501 11.2337 38.501 11.823C38.501 12.4123 38.9787 12.89 39.568 12.89Z" fill="#111116"/>
<path d="M40.2323 15.4627L15.555 40.14L16.8674 41.4524L41.5447 16.7751L40.2323 15.4627Z" fill="#111116"/>
</svg>
