<svg width="62" height="64" viewBox="0 0 62 64" fill="none" xmlns="http://www.w3.org/2000/svg">
<path d="M46.6547 0H15.3453C6.87031 0 0 6.78396 0 15.1524V48.619C0 56.9875 6.87031 63.7714 15.3453 63.7714H46.6547C55.1297 63.7714 62 56.9875 62 48.619V15.1524C62 6.78396 55.1297 0 46.6547 0Z" fill="#E6B1A8"/>
<path d="M18.0146 49.4948L9.23071 40.7109L11.1604 38.7812L14.209 41.8298C14.2116 41.3219 14.3283 40.8211 14.5504 40.3643C14.7693 39.9298 15.0569 39.5334 15.4021 39.1904C15.774 38.8141 16.2152 38.5132 16.7013 38.3042C17.1756 38.1008 17.6894 38.006 18.2051 38.0267C18.7656 38.056 19.3146 38.1964 19.8202 38.4398C20.429 38.7364 20.9808 39.1376 21.4507 39.6252C21.9535 40.1096 22.3696 40.6767 22.6809 41.3017C22.9383 41.8197 23.0834 42.3861 23.1067 42.9641C23.1215 43.5063 23.0149 44.045 22.7947 44.5408C22.5629 45.062 22.2349 45.5349 21.8279 45.9347C21.4908 46.2784 21.0955 46.5598 20.6604 46.7659C20.2452 46.9596 19.7925 47.0596 19.3343 47.0587L19.8906 47.6137L18.0146 49.4948ZM17.2832 44.904C17.4454 45.0755 17.6427 45.21 17.8616 45.2982C18.0805 45.3865 18.3159 45.4265 18.5517 45.4155C19.0741 45.3788 19.5618 45.1409 19.9123 44.7518C20.1148 44.5666 20.2711 44.3365 20.3685 44.08C20.466 43.8235 20.502 43.5478 20.4737 43.2748C20.3658 42.6281 20.0384 42.0383 19.5466 41.6047C19.1187 41.1255 18.5381 40.8092 17.9034 40.7096C17.6303 40.6806 17.3542 40.7161 17.0975 40.8134C16.8407 40.9107 16.6104 41.067 16.4251 41.2697C16.0403 41.6219 15.8074 42.1097 15.7755 42.6303C15.7684 42.8802 15.8152 43.1287 15.9127 43.3588C16.0103 43.589 16.1562 43.7954 16.3407 43.9641L17.2832 44.904Z" fill="white"/>
<path d="M25.7189 41.7862L19.3903 35.4575L21.3199 33.5278L27.6486 39.8578L25.7189 41.7862Z" fill="white"/>
<path d="M28.8234 38.6825L20.0396 29.8986L21.9692 27.9702L30.7519 36.7528L28.8234 38.6825Z" fill="white"/>
<path d="M35.3293 26.6481L30.8766 31.102C31.2866 31.5083 31.8343 31.7456 32.4111 31.767C32.6689 31.7556 32.9219 31.6933 33.1554 31.5835C33.3889 31.4738 33.5984 31.3188 33.7717 31.1276C34.115 30.8351 34.3359 30.4244 34.3906 29.9768C34.4169 29.6621 34.365 29.3458 34.2397 29.056L36.2628 27.6494C36.4468 27.9676 36.5798 28.3128 36.6566 28.6724C36.7414 29.0673 36.7505 29.4748 36.6835 29.8731C36.6032 30.3328 36.4508 30.7769 36.2321 31.189C35.9595 31.6992 35.6087 32.1635 35.1924 32.565C34.7778 33.0311 34.2723 33.4077 33.7069 33.6715C33.1416 33.9354 32.5283 34.0811 31.9047 34.0995C31.2814 34.076 30.6692 33.9271 30.1048 33.6617C29.5403 33.3963 29.0352 33.0198 28.6195 32.5548C28.1193 32.0744 27.719 31.4999 27.4418 30.8642C27.2065 30.3188 27.0909 29.7292 27.1029 29.1353C27.122 28.5615 27.2627 27.9984 27.5159 27.4831C27.7843 26.9355 28.1431 26.437 28.5773 26.0087C28.9727 25.5535 29.4652 25.1929 30.0185 24.9534C30.5718 24.714 31.1718 24.6018 31.7743 24.6251C32.9798 24.7524 34.0968 25.3175 34.9137 26.2133L35.3293 26.6481ZM30.0057 27.4512C29.6954 27.7499 29.4904 28.1412 29.4213 28.5663C29.3696 29.0478 29.4975 29.5314 29.7806 29.9243L32.3714 27.3335C32.0411 27.0272 31.6044 26.8617 31.1541 26.8719C30.7127 26.9161 30.3035 27.1225 30.0057 27.4512Z" fill="white"/>
<path d="M39.0313 28.4754L32.7026 22.1455L34.5786 20.2695L35.3791 21.07C35.3212 20.5713 35.3726 20.066 35.53 19.5892C35.7274 19.018 36.0605 18.5033 36.5006 18.0892C36.9269 17.6245 37.4763 17.2901 38.085 17.125C38.5842 17.0013 39.1085 17.0239 39.5952 17.1902C39.4754 16.5834 39.5304 15.955 39.7538 15.3782C39.9907 14.7732 40.3534 14.2253 40.8177 13.7708C41.3972 13.1427 42.1932 12.7574 43.0454 12.6928C43.4803 12.6857 43.9116 12.7736 44.3092 12.9503C44.7067 13.127 45.0609 13.3882 45.3472 13.7158L49.5671 17.9358L47.6234 19.8782L43.7871 16.0419C43.6522 15.8869 43.4856 15.7626 43.2985 15.6777C43.1114 15.5927 42.9082 15.549 42.7027 15.5496C42.2692 15.5943 41.8685 15.8012 41.5812 16.1289C41.2733 16.4313 41.0764 16.8286 41.0223 17.2567C40.9891 17.4625 41.0067 17.6734 41.0735 17.8709C41.1404 18.0683 41.2545 18.2465 41.406 18.3897L45.2564 22.2388L43.3126 24.1826L39.4763 20.3463C39.3426 20.1941 39.1777 20.0726 38.9928 19.99C38.8078 19.9075 38.6072 19.8659 38.4047 19.868C37.9767 19.9087 37.5803 20.1108 37.296 20.4332C36.9827 20.7368 36.779 21.1357 36.7167 21.5675C36.6834 21.7725 36.701 21.9826 36.7679 22.1793C36.8348 22.3759 36.9489 22.5532 37.1003 22.6954L40.9495 26.5445L39.0313 28.4754Z" fill="white"/>
<path d="M18.5897 34.0922C19.3432 34.0922 19.9541 33.4813 19.9541 32.7277C19.9541 31.9742 19.3432 31.3633 18.5897 31.3633C17.8361 31.3633 17.2252 31.9742 17.2252 32.7277C17.2252 33.4813 17.8361 34.0922 18.5897 34.0922Z" fill="white"/>
<path d="M50.5987 16.5229C51.3523 16.5229 51.9632 15.912 51.9632 15.1584C51.9632 14.4048 51.3523 13.7939 50.5987 13.7939C49.8451 13.7939 49.2343 14.4048 49.2343 15.1584C49.2343 15.912 49.8451 16.5229 50.5987 16.5229Z" fill="white"/>
<path d="M51.4483 19.8139L19.8916 51.3706L21.5699 53.0489L53.1266 21.4921L51.4483 19.8139Z" fill="white"/>
</svg>
