<svg width="381" height="400" viewBox="0 0 381 400" fill="none" xmlns="http://www.w3.org/2000/svg">
<g clip-path="url(#clip0_441_8886)">
<path d="M242 100.6C254.8 94.2 270.4 94.8 283.7 100.1C297 105.4 308.2 115.1 317.5 126C324.1 133.9 330.1 142.9 331.5 153.1C333.6 169.2 323.8 184.5 311.9 195.4C301.4 205 288.5 212.5 274.5 214.6C258.9 217 246.2 211.8 236.6 202.6C225.7 192.1 218.9 176.3 216.5 160.5C215.8 156.2 215.5 151.9 215.5 147.7C215.6 128.8 225.1 109.1 242 100.6Z" fill="white"/>
<path d="M307.9 181.6C313.1 174.2 316.4 165.5 315.2 156.6C314.1 148.1 309.1 140.7 303.6 134.2C295.9 125.2 286.6 117.2 275.6 112.8C264.6 108.4 251.7 107.9 241.1 113.2C237.9 114.8 235 116.9 232.5 119.3C236.1 113.9 240.9 109.3 246.7 106.4C257.3 101.1 270.2 101.6 281.2 106C292.2 110.4 301.5 118.4 309.2 127.4C314.7 133.9 319.6 141.4 320.7 149.8C322.4 161.5 316.2 172.9 307.9 181.6Z" fill="#E6E6E6"/>
<path d="M267.099 217.6C255.099 217.6 244.099 213.1 234.999 204.3C224.399 194 216.799 178.2 214.199 160.8C213.499 156.6 213.199 152.1 213.199 147.7C213.199 126.6 224.399 106.8 240.899 98.5C253.599 92.2 269.499 91.9 284.499 97.9C296.699 102.8 308.399 111.7 319.199 124.5C324.699 131 332.099 141 333.699 152.8C335.599 167.5 328.199 183.6 313.299 197.2C301.299 208.1 287.999 215 274.699 217C272.299 217.4 269.699 217.6 267.099 217.6ZM243.099 102.7C228.099 110.2 217.999 128.3 217.999 147.7C217.999 151.9 218.299 156.1 218.899 160.1C221.299 176.5 228.399 191.4 238.299 200.9C248.399 210.6 260.399 214.4 274.199 212.3C289.799 209.9 302.499 200.8 310.299 193.6C323.999 181.1 330.899 166.4 329.199 153.3C327.799 142.7 320.899 133.4 315.799 127.4C305.499 115.3 294.399 106.8 282.899 102.2C269.299 96.8 254.399 97 243.099 102.7Z" fill="#333333"/>
<path d="M64.3002 98.3C73.7002 94.2 84.5002 94.6 94.7002 96.2C108.9 98.5 122.9 103.1 134.4 111.7C145.8 120.3 154.4 133.4 155.6 147.6C157.1 166.5 145.2 184.8 129 194.6C112 205 89.2002 210.1 70.4002 204.9C57.8002 201.4 47.1002 193.2 41.2002 178.9C40.0002 176.1 39.1002 173.2 38.4002 170.2C35.8002 159.4 36.2002 147.9 38.3002 137C41.4002 121.2 49.5002 104.9 64.3002 98.3Z" fill="white"/>
<path d="M131.7 182.3C139.6 173.8 144.5 162.7 143.6 151.2C142.6 139.1 135.3 128.1 125.7 120.8C116 113.5 104.1 109.6 92.2 107.7C83.6 106.3 74.4 106 66.5 109.5C64.5 110.4 62.7 111.4 61 112.7C64 109.2 67.6 106.3 71.9 104.4C79.9 100.9 89 101.2 97.6 102.6C109.6 104.5 121.5 108.4 131.1 115.7C140.8 123 148 134 149 146.1C150.2 160.1 142.7 173.6 131.7 182.3Z" fill="#E6E6E6"/>
<path d="M86.4006 209.3C80.6006 209.3 75.0006 208.6 69.8006 207.1C55.4006 203.1 44.8006 193.6 39.0006 179.8C37.8006 176.9 36.8006 173.8 36.1006 170.7C33.6006 160.4 33.6006 148.9 36.0006 136.5C39.9006 116.8 49.9006 102.1 63.4006 96.1C74.4006 91.3 86.8006 92.5 95.1006 93.8C111.601 96.4 125.301 101.8 135.801 109.7C148.701 119.5 156.801 133.2 157.901 147.3C159.301 165.8 148.201 185.6 130.201 196.5C116.601 204.9 100.901 209.3 86.4006 209.3ZM65.2006 100.4C53.1006 105.8 44.1006 119.3 40.5006 137.5C38.2006 149.2 38.3006 160 40.6006 169.7C41.3006 172.5 42.2006 175.4 43.3006 178.1C48.5006 190.6 58.1006 199.1 71.0006 202.7C87.8006 207.4 110.101 203.4 127.701 192.7C144.301 182.6 154.501 164.6 153.201 147.8C152.201 135.2 144.601 122.4 132.901 113.5C123.001 106 110.001 101 94.3006 98.5C86.5006 97.3 75.1006 96.1 65.2006 100.4Z" fill="#333333"/>
<path d="M216.6 160.5C219.9 159.2 223.4 158.7 226.9 159.1C237.9 160.6 246.6 171.1 246.8 182.2C246.9 189.8 242.8 197.9 236.6 202.7C225.8 192.1 218.9 176.4 216.6 160.5Z" fill="#333333"/>
<path d="M38.4004 170.3C41.2004 167.3 44.9004 165.1 48.9004 164.3C59.7004 162 71.5004 168.9 75.4004 179.3C78.5004 187.6 76.5004 198.4 70.4004 205C57.8004 201.5 47.1004 193.3 41.2004 179C40.0004 176.1 39.1004 173.2 38.4004 170.3Z" fill="#333333"/>
<path d="M210 349.1C208.6 359.3 206.3 369.8 198.7 378.6C195.7 382.1 191.9 385.1 187.5 387.6C173.5 395.9 153.8 399.3 135.6 396.9C113.4 394 80.1004 378.4 78.3004 360.9C78.1004 359.2 78.2004 357.5 78.4004 355.7C79.8004 345.7 87.3004 334 91.2004 325.3C97.0004 312.2 103.8 299.3 111.4 286.7C114 282.4 116.7 278.2 119.8 274C125.2 266.8 131.8 260.1 140.8 255C154.9 247 176.4 244.2 191 251.7C201.6 257.2 206.1 266.3 208.4 275.6C209 278.2 209.5 280.9 209.8 283.4C213 305.3 213.1 327.3 210 349.1Z" fill="#333333"/>
<path d="M187.6 387.5C173.6 395.8 153.9 399.2 135.7 396.8C113.5 393.9 80.2 378.3 78.4 360.8C78.2 359.1 78.3 357.4 78.5 355.6C88.4 352.2 98.6 349.7 106 348.1C128.5 343.5 155.1 345.1 172 356.5C183.8 364.5 189 376.2 187.6 387.5Z" fill="#ED373E"/>
<path d="M208.5 275.7C179 275.2 149.5 274.7 119.9 274.1C123.9 268.7 128.6 263.7 134.5 259.3C136.5 257.8 138.7 256.4 141 255.1C155.1 247.1 176.6 244.3 191.2 251.8C196.2 254.4 199.8 257.7 202.5 261.6C205.5 265.9 207.3 270.8 208.5 275.7Z" fill="white"/>
<path d="M380.4 116.4C361.2 95.9999 335.8 81.4999 308.6 75.1999C294.9 72.0999 280.9 70.8999 267.4 67.1999C253.9 63.4999 240.5 56.6999 232.7 45.0999C224.9 33.4999 224.4 16.1999 234.4 6.3999C249.2 22.9999 272.1 31.6999 293.6 37.2999C315.2 42.8999 337.8 47.9999 355.2 61.9999C371.3 74.8999 379.7 95.6999 380.4 116.4Z" fill="#333333"/>
<path d="M200.6 261.6C178.4 256.1 155.1 255.3 132.6 259.4C134.6 257.9 136.8 256.5 139.1 255.2C153.2 247.2 174.7 244.4 189.3 251.9C194.3 254.4 197.9 257.8 200.6 261.6Z" fill="#E6E6E6"/>
<path d="M0 109.9C19.2 89.6 44.6 75 71.8 68.8C85.5 65.7 99.5 64.5 113 60.8C126.5 57.1 139.9 50.3 147.7 38.7C155.5 27.1 156 9.8 146 0C131.2 16.6 108.3 25.3 86.8 30.9C65.2 36.5 42.6 41.6 25.2 55.6C9.1 68.5 0.7 89.3 0 109.9Z" fill="#333333"/>
<path d="M147 399.9C143.1 399.9 139.2 399.7 135.4 399.2C111.9 396.1 78.0003 380.1 76.1003 361.2C75.9003 359.4 75.9003 357.5 76.2003 355.4C77.3003 347.8 81.6003 339.5 85.4003 332.1C86.8003 329.4 88.1003 326.8 89.2003 324.4C95.1003 311.3 101.9 298.2 109.5 285.6C112.4 280.7 115.2 276.5 118 272.7C124.6 264 131.5 257.7 139.8 253.1C153.8 245.2 176.2 241.5 192.2 249.7C201.9 254.7 207.8 262.7 210.8 275.1C211.4 277.7 211.9 280.4 212.3 283.2C215.4 305.2 215.5 327.4 212.4 349.3C211 359.8 208.5 370.8 200.6 380C197.4 383.7 193.5 386.9 188.9 389.5C177.5 396.2 162.2 399.9 147 399.9ZM171.2 249.8C160.6 249.8 149.8 252.8 142.1 257.2C134.4 261.5 128 267.4 121.8 275.6C119.1 279.2 116.4 283.3 113.5 288.1C106 300.6 99.3003 313.5 93.5003 326.4C92.4003 328.8 91.0003 331.5 89.6003 334.3C86.0003 341.3 81.9003 349.3 80.9003 356.2C80.6003 357.9 80.6003 359.4 80.8003 360.8C82.5003 377 115.2 392 136.1 394.7C153.8 397 173.1 393.6 186.5 385.7C190.7 383.3 194.2 380.4 197.1 377.2C203.8 369.4 206.3 360.3 207.8 349C210.8 327.6 210.7 305.8 207.7 284.2C207.4 281.6 206.9 279 206.3 276.6C203.6 265.7 198.5 258.5 190.1 254.2C184.5 251.1 177.9 249.8 171.2 249.8Z" fill="#333333"/>
<path d="M79.7996 193.9H72.1996C68.5996 193.9 65.5996 190.9 65.5996 187.3C65.5996 183.7 68.5996 180.7 72.1996 180.7H79.7996C83.3996 180.7 86.3996 183.7 86.3996 187.3C86.3996 191 83.3996 193.9 79.7996 193.9Z" fill="white"/>
<path d="M245.899 191H238.299C234.699 191 231.699 188 231.699 184.4C231.699 180.8 234.699 177.8 238.299 177.8H245.899C249.499 177.8 252.499 180.8 252.499 184.4C252.499 188 249.499 191 245.899 191Z" fill="white"/>
<path opacity="0.23" d="M183.3 382.1C179.6 367.1 167.2 354.6 152.3 350.7C143.4 348.4 134.1 349 125 350.1C111.2 351.7 97.4996 354.3 84.0996 358C102 356 119.5 354.5 137.3 357.2C155.1 359.9 172.6 367.6 183.3 382.1Z" fill="white"/>
</g>
<defs>
<clipPath id="clip0_441_8886">
<rect width="380.4" height="399.9" fill="white"/>
</clipPath>
</defs>
</svg>
