<svg width="90" height="29" viewBox="0 0 90 29" fill="none" xmlns="http://www.w3.org/2000/svg">
<path d="M87.1967 17.723L89.6934 19.3575C88.883 20.5296 86.9448 22.5405 83.594 22.5405C79.4329 22.5405 76.334 19.379 76.334 15.3573C76.334 11.0775 79.4658 8.17407 83.2436 8.17407C87.0434 8.17407 88.9049 11.142 89.5072 12.7442L89.8357 13.5615L80.0461 17.5402C80.7908 18.9812 81.9515 19.7124 83.594 19.7124C85.2366 19.7124 86.3754 18.9166 87.1967 17.723ZM79.5205 15.1315L86.0579 12.4646C85.6965 11.5721 84.6234 10.9377 83.3422 10.9377C81.7106 10.9377 79.4439 12.3571 79.5205 15.1315Z" fill="#FF302F"/>
<path d="M71.6152 0.851074H74.7689V21.8846H71.6152V0.851074Z" fill="#20B15A"/>
<path d="M66.6421 8.73326H69.6863V21.5082C69.6863 26.8096 66.4998 28.9925 62.7329 28.9925C59.185 28.9925 57.0497 26.6483 56.2503 24.745L59.0426 23.6051C59.5463 24.7772 60.7618 26.1644 62.7329 26.1644C65.1529 26.1644 66.6421 24.6912 66.6421 21.9383V20.906H66.5326C65.8099 21.7663 64.4302 22.5405 62.6781 22.5405C59.0207 22.5405 55.6699 19.4113 55.6699 15.3788C55.6699 11.3248 59.0207 8.16333 62.6781 8.16333C64.4192 8.16333 65.8099 8.92682 66.5326 9.76557H66.6421V8.73326ZM66.8611 15.3788C66.8611 12.841 65.1419 10.9915 62.9519 10.9915C60.7399 10.9915 58.8784 12.841 58.8784 15.3788C58.8784 17.8843 60.7399 19.7016 62.9519 19.7016C65.1419 19.7124 66.8611 17.8843 66.8611 15.3788Z" fill="#3686F7"/>
<path d="M38.3581 15.3251C38.3581 19.4651 35.073 22.5083 31.0433 22.5083C27.0136 22.5083 23.7285 19.4543 23.7285 15.3251C23.7285 11.1635 27.0136 8.1311 31.0433 8.1311C35.073 8.1311 38.3581 11.1635 38.3581 15.3251ZM35.1606 15.3251C35.1606 12.7443 33.2553 10.97 31.0433 10.97C28.8314 10.97 26.926 12.7443 26.926 15.3251C26.926 17.8844 28.8314 19.6802 31.0433 19.6802C33.2553 19.6802 35.1606 17.8844 35.1606 15.3251Z" fill="#FF302F"/>
<path d="M54.3347 15.3573C54.3347 19.4973 51.0496 22.5405 47.0199 22.5405C42.9902 22.5405 39.7051 19.4973 39.7051 15.3573C39.7051 11.1958 42.9902 8.17407 47.0199 8.17407C51.0496 8.17407 54.3347 11.185 54.3347 15.3573ZM51.1262 15.3573C51.1262 12.7765 49.2209 11.0022 47.0089 11.0022C44.797 11.0022 42.8916 12.7765 42.8916 15.3573C42.8916 17.9166 44.797 19.7124 47.0089 19.7124C49.2318 19.7124 51.1262 17.9058 51.1262 15.3573Z" fill="#FFBA40"/>
<path d="M11.7053 19.3899C7.11716 19.3899 3.52546 15.7553 3.52546 11.2496C3.52546 6.744 7.11716 3.10937 11.7053 3.10937C14.1801 3.10937 15.9869 4.06642 17.3228 5.2923L19.5239 3.13088C17.6623 1.37809 15.1766 0.0446777 11.7053 0.0446777C5.41986 0.0446777 0.130859 5.07723 0.130859 11.2496C0.130859 17.422 5.41986 22.4546 11.7053 22.4546C15.0999 22.4546 17.6623 21.3578 19.6662 19.3146C21.7249 17.293 22.36 14.4541 22.36 12.1529C22.36 11.4324 22.2724 10.6905 22.1738 10.142H11.7053V13.1315H19.1625C18.9435 15.0025 18.3412 16.2822 17.4543 17.1532C16.3811 18.2178 14.6838 19.3899 11.7053 19.3899Z" fill="#3686F7"/>
</svg>
