<svg width="18" height="17" viewBox="0 0 18 17" fill="none" xmlns="http://www.w3.org/2000/svg">
<path d="M12.8248 4.81675L7.33317 10.3084L4.3415 7.32508L3.1665 8.50008L7.33317 12.6667L13.9998 6.00008L12.8248 4.81675ZM8.99984 0.166748C4.39984 0.166748 0.666504 3.90008 0.666504 8.50008C0.666504 13.1001 4.39984 16.8334 8.99984 16.8334C13.5998 16.8334 17.3332 13.1001 17.3332 8.50008C17.3332 3.90008 13.5998 0.166748 8.99984 0.166748ZM8.99984 15.1667C5.3165 15.1667 2.33317 12.1834 2.33317 8.50008C2.33317 4.81675 5.3165 1.83341 8.99984 1.83341C12.6832 1.83341 15.6665 4.81675 15.6665 8.50008C15.6665 12.1834 12.6832 15.1667 8.99984 15.1667Z" fill="white"/>
</svg>
