<svg width="42" height="42" viewBox="0 0 42 42" fill="none" xmlns="http://www.w3.org/2000/svg">
<path d="M39 36L39.8817 37.7865L41.8532 38.0729L40.4266 39.4635L40.7634 41.4271L39 40.5L37.2366 41.4271L37.5734 39.4635L36.1468 38.0729L38.1183 37.7865L39 36Z" fill="#FF9500"/>
<path d="M3 0L3.88168 1.78647L5.85317 2.07295L4.42658 3.46353L4.76336 5.42705L3 4.5L1.23664 5.42705L1.57342 3.46353L0.146831 2.07295L2.11832 1.78647L3 0Z" fill="#FF9500"/>
<path d="M12 9L12.8817 10.7865L14.8532 11.0729L13.4266 12.4635L13.7634 14.4271L12 13.5L10.2366 14.4271L10.5734 12.4635L9.14683 11.0729L11.1183 10.7865L12 9Z" fill="#FF9500"/>
<path d="M21 18L21.8817 19.7865L23.8532 20.0729L22.4266 21.4635L22.7634 23.4271L21 22.5L19.2366 23.4271L19.5734 21.4635L18.1468 20.0729L20.1183 19.7865L21 18Z" fill="#FF9500"/>
<path d="M30 27L30.8817 28.7865L32.8532 29.0729L31.4266 30.4635L31.7634 32.4271L30 31.5L28.2366 32.4271L28.5734 30.4635L27.1468 29.0729L29.1183 28.7865L30 27Z" fill="#FF9500"/>
<path d="M21 0L21.8817 1.78647L23.8532 2.07295L22.4266 3.46353L22.7634 5.42705L21 4.5L19.2366 5.42705L19.5734 3.46353L18.1468 2.07295L20.1183 1.78647L21 0Z" fill="#FF9500"/>
<path d="M30 9L30.8817 10.7865L32.8532 11.0729L31.4266 12.4635L31.7634 14.4271L30 13.5L28.2366 14.4271L28.5734 12.4635L27.1468 11.0729L29.1183 10.7865L30 9Z" fill="#FF9500"/>
<path d="M39 18L39.8817 19.7865L41.8532 20.0729L40.4266 21.4635L40.7634 23.4271L39 22.5L37.2366 23.4271L37.5734 21.4635L36.1468 20.0729L38.1183 19.7865L39 18Z" fill="#FF9500"/>
<path d="M39 0L39.8817 1.78647L41.8532 2.07295L40.4266 3.46353L40.7634 5.42705L39 4.5L37.2366 5.42705L37.5734 3.46353L36.1468 2.07295L38.1183 1.78647L39 0Z" fill="#FF9500"/>
<path d="M12 0L12.8817 1.78647L14.8532 2.07295L13.4266 3.46353L13.7634 5.42705L12 4.5L10.2366 5.42705L10.5734 3.46353L9.14683 2.07295L11.1183 1.78647L12 0Z" fill="#FF9500"/>
<path d="M21 9L21.8817 10.7865L23.8532 11.0729L22.4266 12.4635L22.7634 14.4271L21 13.5L19.2366 14.4271L19.5734 12.4635L18.1468 11.0729L20.1183 10.7865L21 9Z" fill="#FF9500"/>
<path d="M30 18L30.8817 19.7865L32.8532 20.0729L31.4266 21.4635L31.7634 23.4271L30 22.5L28.2366 23.4271L28.5734 21.4635L27.1468 20.0729L29.1183 19.7865L30 18Z" fill="#FF9500"/>
<path d="M39 27L39.8817 28.7865L41.8532 29.0729L40.4266 30.4635L40.7634 32.4271L39 31.5L37.2366 32.4271L37.5734 30.4635L36.1468 29.0729L38.1183 28.7865L39 27Z" fill="#FF9500"/>
<path d="M30 0L30.8817 1.78647L32.8532 2.07295L31.4266 3.46353L31.7634 5.42705L30 4.5L28.2366 5.42705L28.5734 3.46353L27.1468 2.07295L29.1183 1.78647L30 0Z" fill="#FF9500"/>
<path d="M39 9L39.8817 10.7865L41.8532 11.0729L40.4266 12.4635L40.7634 14.4271L39 13.5L37.2366 14.4271L37.5734 12.4635L36.1468 11.0729L38.1183 10.7865L39 9Z" fill="#FF9500"/>
</svg>
