<svg width="20" height="20" viewBox="0 0 20 20" fill="none" xmlns="http://www.w3.org/2000/svg">
<path fill-rule="evenodd" clip-rule="evenodd" d="M1.47517 1.72706C2.54793 0.225187 4.74784 0.134931 5.94003 1.54388L7.84666 3.79717C8.3997 4.45077 8.47538 5.38389 8.03488 6.11805L6.56609 8.56604C6.68383 8.75871 6.84338 8.98864 7.04748 9.25089C7.41145 9.71854 7.87652 10.2377 8.39516 10.7564C9.26856 11.6298 10.2464 12.4545 11.0881 13.0118L13.4884 11.5716C14.2226 11.1311 15.1557 11.2067 15.8093 11.7598L18.1713 13.7584C19.5251 14.9039 19.4384 17.0177 17.9953 18.0485C15.7699 19.638 12.779 20.0161 10.3285 18.5205C8.63921 17.4895 6.56919 16.0339 4.7173 14.182C3.00043 12.4652 1.7486 10.6854 0.875499 9.20491C-0.562791 6.76606 -0.057385 3.87263 1.47517 1.72706ZM4.41326 2.83576C4.0633 2.42218 3.41753 2.44867 3.10263 2.88953C1.91121 4.55752 1.65587 6.59101 2.59823 8.18895C3.4046 9.55627 4.55758 11.1939 6.13152 12.7678C7.83586 14.4722 9.76552 15.8338 11.3704 16.8133C13.0242 17.8226 15.1456 17.6262 16.8328 16.421C17.2149 16.1481 17.2378 15.5885 16.8794 15.2852L14.5174 13.2866L11.5958 15.0395C11.2864 15.2251 10.9011 15.2297 10.5875 15.0516C9.43916 14.3995 8.09698 13.2866 6.98094 12.1706C6.41748 11.6071 5.89457 11.0259 5.46916 10.4793C5.0556 9.94788 4.68959 9.39308 4.49279 8.88862C4.3803 8.60027 4.40767 8.27609 4.56692 8.01069L6.31989 5.08906L4.41326 2.83576Z" fill="white"/>
</svg>
