<svg width="20" height="20" viewBox="0 0 20 20" fill="none" xmlns="http://www.w3.org/2000/svg">
<path d="M9.99935 1.6665C5.39698 1.6665 1.66602 5.39746 1.66602 9.99984C1.66602 14.6022 5.39698 18.3332 9.99935 18.3332C14.6017 18.3332 18.3327 14.6022 18.3327 9.99984C18.3327 5.39746 14.6017 1.6665 9.99935 1.6665Z" fill="#90ECF4"/>
<path fill-rule="evenodd" clip-rule="evenodd" d="M13.0886 7.74408C13.414 8.06951 13.414 8.59715 13.0886 8.92259L9.75527 12.2559C9.42983 12.5814 8.9022 12.5814 8.57676 12.2559L6.91009 10.5893C6.58466 10.2638 6.58466 9.73618 6.91009 9.41074C7.23553 9.08531 7.76317 9.08531 8.0886 9.41074L9.16602 10.4882L11.9101 7.74408C12.2355 7.41864 12.7632 7.41864 13.0886 7.74408Z" fill="#444BD3"/>
</svg>
