<svg width="25" height="25" viewBox="0 0 25 25" fill="none" xmlns="http://www.w3.org/2000/svg">
<path d="M12.6289 5.91797C9.08009 5.91797 6.20538 8.77285 6.20538 12.3018C6.20538 13.6896 6.66137 14.9981 7.43457 16.0488L6.62172 18.4279L9.09991 17.6349C10.111 18.3089 11.3402 18.6856 12.6487 18.6856C16.1975 18.6856 19.092 15.8307 19.092 12.3018C19.0722 8.77285 16.1776 5.91797 12.6289 5.91797ZM16.3957 14.9386C16.2371 15.3747 15.4639 15.7911 15.1269 15.8307C14.7898 15.8704 14.7898 16.1083 12.8668 15.3747C10.9635 14.6214 9.75415 12.6983 9.65503 12.5595C9.5559 12.4406 8.88183 11.5484 8.88183 10.6364C8.88183 9.72447 9.35764 9.26848 9.53607 9.09005C9.7145 8.91162 9.91276 8.85215 10.0317 8.85215C10.1507 8.85215 10.2894 8.87197 10.3886 8.87197C10.5075 8.87197 10.6463 8.8125 10.8049 9.18918C10.9635 9.56587 11.3402 10.4778 11.3798 10.577C11.4195 10.6761 11.4592 10.7752 11.3997 10.8942C11.3402 11.0131 11.3005 11.0924 11.2212 11.2114C11.1221 11.3105 11.023 11.4493 10.9437 11.5286C10.8446 11.6277 10.7454 11.7269 10.8644 11.9053C10.9833 12.0837 11.36 12.6983 11.9151 13.1939C12.6289 13.8284 13.2434 14.0266 13.4219 14.1257C13.6003 14.2249 13.7193 14.205 13.8184 14.0861C13.9373 13.9671 14.2942 13.5508 14.4132 13.3525C14.5321 13.1741 14.6709 13.1939 14.8295 13.2534C15.0079 13.3129 15.9199 13.7689 16.1182 13.868C16.2966 13.9671 16.4354 14.0068 16.475 14.0861C16.5345 14.1257 16.5345 14.5024 16.3957 14.9386Z" fill="white"/>
<path d="M18.7153 0.00976562H6.26487C2.81523 0.00976562 0 2.82499 0 6.27464V18.7449C0 22.1747 2.81523 24.9899 6.26487 24.9899H18.7351C22.1848 24.9899 25 22.1747 25 18.7251V6.27464C24.9802 2.82499 22.1649 0.00976562 18.7153 0.00976562ZM12.6289 19.8948C11.2807 19.8948 10.0317 19.5577 8.92149 18.9432L4.67883 20.2913L6.06661 16.2271C5.37272 15.0772 4.97621 13.729 4.97621 12.3016C4.97621 8.09858 8.40603 4.70842 12.6289 4.70842C16.8517 4.70842 20.2815 8.09858 20.2815 12.3016C20.2815 16.5046 16.8517 19.8948 12.6289 19.8948Z" fill="white"/>
</svg>
